PathFileType	4	(X/Y/Z)	C:\Users\Basilio\Documents\Thesis Gigler\squatting_fais\c3dfiles\039\SJ_pre4\markers_experimental.trc
DataRate	CameraRate	NumFrames	NumMarkers	Units	OrigDataRate	OrigDataStartFrame	OrigNumFrames
200.000000	200.000000	4	63	mm	200.000000	1564	1788
Frame#	Time	FHD			LBHD			RBHD			C7			T10			CLAV			LSHO			LUUPA			LMUPA			LDUPA			LLEP			LMEP			LRAD			LUL			LRFIN			RSHO			RUPA1			RMUPA			RDUPA			RLEP			RMEP			RRAD			RUL			RUFIN			LASI			RASI			USACR			LSACR			RSACR			LTHI1			LTHI2			LTHI3			LTHI4			LLFC			LMFC			LTIB1			LTIB2			LTIB3			LTIB4			LLMAL			LMMAL			LHEE			LMT1			LMT2			LMT5			RTHI			RTHI2			RTHI3			RTHI4			RLFC			RMFC			RTIB1			RTIB2			RTIB3			RTIB4			RLMAL			RMMAL			RHEE			RMT1			RMT2			RMT5			*61			*62			
		X1	Y1	Z1	X2	Y2	Z2	X3	Y3	Z3	X4	Y4	Z4	X5	Y5	Z5	X6	Y6	Z6	X7	Y7	Z7	X8	Y8	Z8	X9	Y9	Z9	X10	Y10	Z10	X11	Y11	Z11	X12	Y12	Z12	X13	Y13	Z13	X14	Y14	Z14	X15	Y15	Z15	X16	Y16	Z16	X17	Y17	Z17	X18	Y18	Z18	X19	Y19	Z19	X20	Y20	Z20	X21	Y21	Z21	X22	Y22	Z22	X23	Y23	Z23	X24	Y24	Z24	X25	Y25	Z25	X26	Y26	Z26	X27	Y27	Z27	X28	Y28	Z28	X29	Y29	Z29	X30	Y30	Z30	X31	Y31	Z31	X32	Y32	Z32	X33	Y33	Z33	X34	Y34	Z34	X35	Y35	Z35	X36	Y36	Z36	X37	Y37	Z37	X38	Y38	Z38	X39	Y39	Z39	X40	Y40	Z40	X41	Y41	Z41	X42	Y42	Z42	X43	Y43	Z43	X44	Y44	Z44	X45	Y45	Z45	X46	Y46	Z46	X47	Y47	Z47	X48	Y48	Z48	X49	Y49	Z49	X50	Y50	Z50	X51	Y51	Z51	X52	Y52	Z52	X53	Y53	Z53	X54	Y54	Z54	X55	Y55	Z55	X56	Y56	Z56	X57	Y57	Z57	X58	Y58	Z58	X59	Y59	Z59	X60	Y60	Z60	X61	Y61	Z61	X62	Y62	Z62	X63	Y63	Z63	

1565	7.82	-172.0624237060547	1776.231323242188	-796.0643310546877	-277.2005004882813	1722.392333984375	-958.5379028320315	-297.7114868164063	1731.95849609375	-819.323181152344	-325.6275634765626	1572.915283203125	-886.2883300781252	-342.7944641113282	1256.57861328125	-891.4285888671877	-183.5402374267578	1501.89013671875	-877.399353027344	-231.3197631835938	1550.887573242188	-1069.035522460938	-306.8432617187501	1410.753295898438	-1236.192749023438	-268.2489929199219	1377.753662109375	-1236.816772460938	-304.5720520019532	1355.844482421875	-1280.226196289063	-297.2107238769532	1290.462158203125	-1309.110595703125	-375.1635131835938	1271.007690429688	-1269.661865234375	-285.1179504394532	1053.02490234375	-1136.12255859375	-231.2626190185547	1037.118041992188	-1188.56689453125	-235.7070617675782	1060.323486328125	-1084.34375	-227.8830718994141	1545.878173828125	-687.1644287109376	-354.5216979980469	1423.4560546875	-544.8038330078126	-324.2662963867188	1386.290161132813	-530.3485107421876	-374.9159851074219	1371.298583984375	-502.1449279785157	-372.5836486816407	1306.368408203125	-472.5088500976564	-444.5733947753907	1293.15283203125	-524.3457641601564	-310.9297790527344	1098.564208984375	-676.9929199218751	-298.9756774902344	1053.206420898438	-616.7570800781251	-248.6317138671876	1078.333618164063	-713.2109375000001	-170.5231475830078	1067.518798828125	-998.2866210937502	-184.8035583496094	1054.737060546875	-776.375183105469	-357.0164794921876	1126.479736328125	-891.8786621093752	-361.3457031250001	1095.978271484375	-921.1118774414065	-368.3493652343751	1094.776245117188	-863.2661743164065	-251.9178161621094	793.9109497070315	-1082.755859375	-222.1262817382813	714.6422729492189	-1083.526611328125	-174.5234527587891	716.3768310546876	-1073.89990234375	-251.7318878173829	662.7717285156251	-1071.128173828125	-258.1678466796876	539.1934814453126	-1070.194213867188	-226.2754211425782	510.4768371582032	-959.2851562500002	-209.4856414794922	388.6896972656251	-1055.346557617188	-280.6730651855469	350.6829223632813	-1092.31982421875	-238.6825103759766	344.6272583007813	-1079.313110351563	-238.2564544677735	262.6589050292969	-1043.411499023438	-309.4156494140626	99.90561676025393	-1072.404541015625	-281.4717712402344	95.34657287597658	-989.8323974609377	-370.5726318359376	41.21279907226563	-1027.1376953125	-136.5023651123047	55.12643051147462	-1047.042846679688	-149.8844757080078	54.24450683593751	-1088.637329101563	-199.3236389160157	30.90118789672852	-1133.573974609375	-245.4641876220704	793.1087036132815	-694.7164916992189	-204.4665832519532	741.6068115234376	-682.9216918945314	-172.5295867919922	745.8558959960939	-685.9532470703126	-227.8651428222657	658.7256469726564	-688.9484863281251	-253.0905761718751	518.6976318359376	-705.8854370117189	-196.9258422851563	497.4505310058595	-808.6373291015627	-226.7109832763672	306.6670227050782	-691.3513793945314	-316.3137817382813	246.3440399169922	-695.0150756835939	-272.0665893554688	235.5687408447266	-684.0927734375001	-251.3567810058594	183.237533569336	-706.6379394531251	-322.9432067871094	92.89198303222658	-687.0505371093751	-279.1174011230469	101.0469589233399	-765.3911132812501	-378.7724304199219	40.84273910522462	-742.8918457031251	-147.1171569824219	51.81825637817384	-704.8157348632814	-160.15673828125	57.18800354003908	-660.4830322265626	-220.6007995605469	30.55037879943848	-617.7280273437501	nan	nan	nan	nan	nan	nan	
1566	7.825	-171.9583740234375	1776.232177734375	-796.1040649414065	-277.4544372558594	1722.510009765625	-958.3493652343752	-297.6814880371094	1731.93408203125	-819.0969238281252	-325.7656250000001	1572.979736328125	-886.2415771484377	-342.8349304199219	1256.583251953125	-891.3984375000002	-183.6741638183594	1501.9404296875	-877.3831787109377	-231.3728485107422	1550.95556640625	-1069.0537109375	-306.9555053710938	1410.78173828125	-1236.183715820313	-268.3946838378907	1377.740234375	-1236.871459960938	-304.7484741210938	1355.82177734375	-1280.185546875	-297.2878723144532	1290.478271484375	-1309.0859375	-375.3955993652344	1270.910766601563	-1269.685302734375	-285.2205200195313	1052.977416992188	-1136.085815429688	-231.299301147461	1037.10009765625	-1188.54638671875	-235.7678527832032	1060.320190429688	-1084.29541015625	-227.9768218994141	1545.874633789063	-687.1353759765626	-354.5705566406251	1423.49853515625	-544.7307128906251	-324.3230895996094	1386.298217773438	-530.3098754882814	-375.0278320312501	1371.316528320313	-502.1190490722657	-372.6720275878907	1306.364135742188	-472.5179748535157	-444.6829223632814	1293.193237304688	-524.2804565429689	-310.9395446777344	1098.582153320313	-676.9610595703126	-299.0596618652344	1053.27099609375	-616.7522583007814	-248.7241668701172	1078.387817382813	-713.1762084960939	-170.5727233886719	1067.506591796875	-998.2438964843752	-184.8662109375	1054.74951171875	-776.300476074219	-357.0508117675782	1126.361450195313	-891.7637939453127	-361.3394775390626	1096.038452148438	-921.1075439453127	-368.3660888671876	1094.801879882813	-863.2407836914065	-252.0653991699219	793.9277343750002	-1082.755859375	-222.2332611083985	714.7127075195314	-1083.474731445313	-174.6821899414063	716.3828125000001	-1073.87158203125	-251.8992614746094	662.8225097656251	-1071.085571289063	-258.2690734863282	539.1787719726564	-1070.20556640625	-226.3790283203126	510.4768066406251	-959.2692871093752	-209.6345672607422	388.6867675781251	-1055.3388671875	-280.7550659179688	350.7273254394532	-1092.248413085938	-238.8544464111329	344.5941162109376	-1079.259765625	-238.4346771240235	262.4741516113282	-1043.331909179688	-309.4681396484376	99.74787902832034	-1072.458984375	-281.4546813964844	95.34427642822267	-989.8020629882815	-370.5740661621094	41.25184631347657	-1027.127685546875	-136.5106353759766	54.80684280395509	-1047.252807617188	-149.8858642578125	54.24276733398439	-1088.639282226563	-199.283920288086	30.8686866760254	-1133.549682617188	-245.5628051757813	793.186950683594	-694.7001953125001	-204.5452270507813	741.6528930664064	-682.8970947265626	-172.6607055664063	745.8736572265626	-685.9275512695314	-227.9450225830079	658.7304077148439	-688.9546508789064	-253.1453857421876	518.6892700195314	-705.9216918945314	-197.0119781494141	497.5607299804689	-808.6459960937502	-227.0324096679688	306.4745788574219	-692.0856323242189	-316.3914184570313	246.2879943847657	-695.0369873046876	-272.1600341796876	235.5637512207032	-684.0820312500001	-251.3410339355469	183.258529663086	-706.6691284179689	-322.9361267089844	92.89170074462892	-687.0691528320314	-279.1266479492188	101.0486068725586	-765.3811645507814	-378.7799377441407	40.81510162353516	-742.8318481445314	-147.081298828125	51.77403640747072	-704.8006591796876	-160.1151733398438	57.25964736938478	-660.4334106445314	-220.6440887451172	30.48642921447755	-617.7322998046876	nan	nan	nan	nan	nan	nan	
1567	7.83	-171.832504272461	1776.183837890625	-796.1431274414065	-277.9208679199219	1722.570434570313	-958.1819458007815	-297.5710754394532	1731.972534179688	-818.842956542969	-325.9498596191407	1573.013793945313	-886.2173461914065	-343.0449218750001	1256.6181640625	-891.4255981445315	-183.8113861083985	1501.957885742188	-877.3553466796877	-231.5033111572266	1551.002563476563	-1069.023681640625	-307.0869445800782	1410.791381835938	-1236.145629882813	-268.5590515136719	1377.700073242188	-1236.763793945313	-304.8249511718751	1355.83203125	-1280.135375976563	-297.5069885253907	1290.412841796875	-1309.015625	-375.3993530273438	1270.973510742188	-1269.59130859375	-285.2794189453126	1052.986450195313	-1136.03076171875	-231.3632507324219	1037.107055664063	-1188.518798828125	-235.8503875732422	1060.298461914063	-1084.291259765625	-228.1073913574219	1545.931640625	-687.1119384765626	-354.6973571777344	1423.534545898438	-544.6563110351564	-324.3739929199219	1386.317626953125	-530.2965698242189	-375.0992736816407	1371.3583984375	-502.0753784179689	-372.6605834960938	1306.430053710938	-472.4525756835939	-444.7767028808595	1293.200317382813	-524.2515258789064	-311.0076293945313	1098.609130859375	-676.9024047851564	-299.1071166992188	1053.351440429688	-616.7710571289064	-248.7623291015626	1078.420043945313	-713.1460571289064	-170.6890716552735	1067.477905273438	-998.2218017578127	-184.9556732177735	1054.80615234375	-776.2671508789065	-357.0213317871094	1126.3271484375	-891.8350219726565	-361.4848632812501	1096.001831054688	-921.109313964844	-368.4571228027344	1094.789184570313	-863.1665039062502	-252.1894531250001	793.972839355469	-1082.703247070313	-221.9928894042969	714.4498291015626	-1083.483520507813	-174.8807067871094	716.4207153320314	-1073.87939453125	-252.0155487060547	662.7805786132814	-1071.02587890625	-258.3914184570313	539.2310791015626	-1070.20947265625	-226.5384368896485	510.1898193359376	-959.0115966796877	-209.7535095214844	388.7305297851564	-1055.331176757813	-280.9263000488282	350.7656250000001	-1092.291137695313	-238.9873352050782	344.6164855957032	-1079.19189453125	-238.5010223388672	262.4555969238282	-1043.324829101563	-309.4687805175782	99.75715637207034	-1072.438232421875	-281.4779663085938	95.32777404785158	-989.8284301757815	-370.5760803222657	41.21291732788087	-1027.129638671875	-136.528549194336	55.15979385375978	-1047.004150390625	-149.8994750976563	54.24412918090822	-1088.685302734375	-199.2378387451172	30.84917068481446	-1133.563720703125	-245.6761779785157	793.2049560546877	-694.6673583984376	-204.5983123779297	741.7037963867189	-682.8760375976564	-172.723388671875	745.8852539062501	-685.9411621093751	-228.0718994140626	658.7782592773439	-688.9630126953126	-253.2345581054688	518.7035522460939	-705.9213256835939	-197.0450744628907	497.5982055664064	-808.6660156250002	-226.8992156982422	306.7531127929688	-691.3652343750001	-316.4063415527344	246.3226928710938	-695.0343627929689	-272.1728515625001	235.5323486328126	-684.0927124023439	-251.3334503173829	183.2329254150391	-706.6352539062501	-322.8797607421876	92.87898254394533	-687.0520629882814	-279.1517028808594	101.0757217407227	-765.3933105468751	-378.8058166503907	40.7981185913086	-742.8682861328126	-147.0879974365235	51.77759933471681	-704.7733154296876	-160.1004791259766	57.30045700073244	-660.4445190429689	-220.6600341796876	30.47201538085938	-617.7069702148439	nan	nan	nan	nan	nan	nan	
1568	7.835	-171.6907653808594	1776.2314453125	-796.315612792969	-278.2374267578126	1722.682006835938	-957.901306152344	-297.4647216796876	1732.0498046875	-818.4721679687502	-326.0561218261719	1573.02685546875	-886.1762695312502	-342.9187927246094	1256.618530273438	-891.334655761719	-183.9296875	1502.023071289063	-877.391540527344	-231.5493774414063	1550.983764648438	-1069.031982421875	-307.1577758789063	1410.784545898438	-1236.130981445313	-268.6873779296876	1377.699462890625	-1236.745483398438	-305.0007934570313	1355.794677734375	-1280.105712890625	-297.5972290039063	1290.375244140625	-1308.944946289063	-375.6584472656251	1270.927124023438	-1269.599243164063	-285.2826232910157	1052.960815429688	-1136.027587890625	-231.3811645507813	1037.113525390625	-1188.513793945313	-235.9448242187501	1060.349487304688	-1084.267822265625	-228.1798706054688	1545.920166015625	-687.0987548828126	-354.8069152832032	1423.559814453125	-544.5887451171876	-324.4479980468751	1386.32421875	-530.2504882812501	-375.1588745117188	1371.410400390625	-502.0186157226564	-372.7251586914063	1306.41064453125	-472.4653320312501	-444.8015747070314	1293.219482421875	-524.1415405273439	-311.0649414062501	1098.622192382813	-676.8840942382814	-299.1842651367188	1053.373413085938	-616.6835937500001	-248.8366394042969	1078.434814453125	-713.0905761718751	-170.7310791015625	1067.481201171875	-998.2432250976565	-185.0501708984375	1054.789916992188	-776.2453613281252	-357.1979675292969	1126.467895507813	-891.8078613281252	-361.5620727539063	1096.025756835938	-921.065856933594	-368.5576171875001	1094.830810546875	-863.178405761719	-252.2995758056641	793.9546508789065	-1082.69775390625	-222.5523681640626	714.7623901367189	-1083.4443359375	-174.9693603515625	716.3755493164064	-1073.831420898438	-252.1547241210938	662.7694702148439	-1071.058715820313	-258.6116638183594	539.2142333984376	-1070.187255859375	-226.6771545410157	510.4486389160157	-959.1184082031252	-209.8696746826172	388.7224731445314	-1055.379150390625	-281.0408020019532	350.7989196777344	-1092.29345703125	-239.0155944824219	344.6860961914063	-1079.240478515625	-238.5733947753907	262.5286560058594	-1043.33203125	-309.5150146484376	99.44576263427737	-1072.527587890625	-281.4547119140626	95.32195281982423	-989.825378417969	-370.5886230468751	41.22172927856446	-1027.117797851563	-136.576400756836	54.81935501098634	-1047.242309570313	-149.892074584961	54.27853393554689	-1088.645629882813	-199.7883605957032	31.27866744995118	-1133.556640625	-245.7644958496094	793.222351074219	-694.6696166992189	-205.0213165283204	741.4523925781251	-683.1813964843751	-172.7462615966797	745.8908081054689	-685.9385375976564	-228.1482696533204	658.7390136718751	-688.9396972656251	-253.3744812011719	518.6744384765626	-705.9194946289064	-197.0834350585938	497.6966857910157	-808.5974121093752	-226.9947052001954	306.7402648925782	-691.4105224609376	-316.4875183105469	246.3049621582032	-695.0689697265626	-272.2403564453126	235.5440063476563	-684.0842895507814	-251.3258514404297	183.214111328125	-706.6342163085939	-322.9630737304688	92.91216278076173	-687.0446777343751	-279.1315612792969	101.0908279418946	-765.3688964843751	-378.7856140136719	40.84031295776368	-742.8275146484376	-147.1228942871094	51.75737380981447	-704.8399047851564	-160.0759887695313	57.32833099365236	-660.4337158203126	-220.7514343261719	30.2244052886963	-617.7550048828126	nan	nan	nan	nan	nan	nan	
